<svg width="100%" height="100%" viewBox="0 0 1000 1000" version="1.1" xmlns="http://www.w3.org/2000/svg" xmlns:xlink="http://www.w3.org/1999/xlink" xml:space="preserve" xmlns:serif="http://www.serif.com/" style="fill-rule:evenodd;clip-rule:evenodd;stroke-linejoin:round;stroke-miterlimit:2;">
    <g transform="matrix(1,0,0,1,-1000,-1000)">
        <g transform="matrix(1,0,0,1,1000,1000)">
            <path d="M500,0C223.858,0 0,223.858 0,500C0,776.142 223.858,1000 500,1000C776.142,1000 1000,776.142 1000,500C1000,223.858 776.142,0 500,0ZM500,900C279.4,900 100,720.6 100,500C100,279.4 279.4,100 500,100C720.6,100 900,279.4 900,500C900,720.6 720.6,900 500,900Z" style="fill:white;"/>
            <path d="M500,200C334.316,200 200,334.316 200,500C200,665.684 334.316,800 500,800C665.684,800 800,665.684 800,500C800,334.316 665.684,200 500,200ZM500,700C389.544,700 300,610.456 300,500C300,389.544 389.544,300 500,300C610.456,300 700,389.544 700,500C700,610.456 610.456,700 500,700Z" style="fill:white;"/>
            <path d="M500,400C444.772,400 400,444.772 400,500C400,555.228 444.772,600 500,600C555.228,600 600,555.228 600,500C600,444.772 555.228,400 500,400Z" style="fill:white;"/>
        </g>
    </g>
</svg>