<?xml version="1.0" encoding="utf-8"?>
<!-- Generator: Adobe Illustrator 27.8.1, SVG Export Plug-In . SVG Version: 6.00 Build 0)  -->
<svg version="1.1" id="Camada_1" xmlns:xodm="http://www.corel.com/coreldraw/odm/2003"
	 xmlns="http://www.w3.org/2000/svg" xmlns:xlink="http://www.w3.org/1999/xlink" x="0px" y="0px" viewBox="0 0 260.8 242.8"
	 style="enable-background:new 0 0 260.8 242.8;" xml:space="preserve">
<style type="text/css">
	.st0{fill:#FFFFFF;}
</style>
<g id="Camada_x0020_1">
	<g id="_2696299226096">
		<path class="st0" d="M40.7,0h3.9l29.7,74.2c1.2,3,3.6,4.5,7.3,4.5h2.6v4.2H51.1v-4.2h2.6c3.4,0,5.9-0.4,7.3-1.1
			c1-0.5,1.5-1.3,1.5-2.4c0-0.6-0.1-1.3-0.4-2l-6.8-17.2H22.5L18.6,66c-1,2.6-1.5,4.7-1.5,6.2c0,1.8,0.9,3.3,2.6,4.6
			c1.7,1.3,4.2,1.9,7.4,1.9h2.8v4.2H-0.2v-4.2c3.2,0,5.8-0.7,7.6-2.1c1.9-1.4,3.6-4,5.2-7.8C12.6,68.9,40.7,0,40.7,0z M39.1,15.6
			L24.3,51.9h29.2C53.5,51.9,39.1,15.6,39.1,15.6z M88.2,1.7H108l50.1,63.8V19.4c0-4.6-1.1-8.1-3.2-10.3c-2-2.1-4.9-3.1-8.8-3.2V1.7
			h28.8v4.2c-2.9,0-5.2,0.4-6.6,1.2c-1.5,0.8-2.7,2.3-3.8,4.4c-1.1,2.1-1.6,4.4-1.6,7v64.5h-5.2l-51.9-66.5v49.1
			c0,4.4,1.1,7.7,3.4,9.9c2.3,2.2,5.8,3.3,10.6,3.4v4.2H88.2v-4.2c4-0.1,7.1-1.4,9.4-3.8c2.3-2.4,3.5-5.3,3.5-8.8v-55l-1-1
			c-1.8-2-3.1-3.2-3.8-3.5c-1.1-0.5-2.5-0.8-4.3-0.8h-3.8L88.2,1.7L88.2,1.7z M217.1,0h3.9l29.7,74.2c1.2,3,3.6,4.5,7.3,4.5h2.6v4.2
			h-33.1v-4.2h2.6c3.4,0,5.9-0.4,7.3-1.1c1-0.5,1.5-1.3,1.5-2.4c0-0.6-0.1-1.3-0.4-2l-6.8-17.2h-32.8L195,66c-1,2.6-1.5,4.7-1.5,6.2
			c0,1.8,0.9,3.3,2.6,4.6c1.7,1.3,4.2,1.9,7.4,1.9h2.8v4.2h-30.1v-4.2c3.2,0,5.8-0.7,7.6-2.1c1.9-1.4,3.6-4,5.2-7.8L217.1,0L217.1,0
			z M215.6,15.6l-14.8,36.2H230C230,51.9,215.6,15.6,215.6,15.6z"/>
		<path class="st0" d="M-0.2,115.6h41c9.2,0,16.3,2,21.2,5.9c4.9,3.9,7.3,9.1,7.3,15.4s-2.2,11.2-6.7,14.5
			c-6.2,4.6-13.8,6.9-22.8,6.9H24.9v26.5c0,1.5,0.4,2.6,1.2,3.3c1,0.8,2.5,1.3,4.2,1.3h9.4v4H-0.2v-4h8.3c1.7,0,2.9-0.3,3.6-0.9
			c0.8-0.6,1.2-1.5,1.2-2.5v-61.9c0-1.6-0.5-2.7-1.5-3.4c-1-0.7-2.8-1-5.5-1h-6.1L-0.2,115.6L-0.2,115.6z M24.9,154.4h11.3
			c7.1,0,12.3-1.4,15.5-4.2c3.2-2.8,4.8-7.4,4.8-13.8c0-4.5-0.7-7.9-2.1-10.3c-1.4-2.4-3.5-4.2-6.3-5.3c-2.8-1.2-7.3-1.7-13.6-1.7
			c-4.2,0-6.8,0.4-7.9,1.1c-1.1,0.7-1.6,2-1.6,3.8V154.4L24.9,154.4z M103.6,114h3.9l29.7,71.1c1.2,2.9,3.6,4.3,7.3,4.3h2.6v4h-33.1
			v-4h2.6c3.4,0,5.9-0.3,7.3-1c1-0.5,1.5-1.3,1.5-2.3c0-0.6-0.1-1.2-0.4-1.9l-6.9-16.5H85.4l-3.9,9.4c-1,2.5-1.5,4.5-1.5,6
			c0,1.7,0.9,3.2,2.6,4.4c1.7,1.2,4.2,1.8,7.4,1.8h2.8v4H62.7v-4c3.2,0,5.8-0.7,7.6-2c1.9-1.3,3.6-3.8,5.2-7.5L103.6,114L103.6,114z
			 M102.1,129l-14.8,34.7h29.2C116.5,163.7,102.1,129,102.1,129z M150.8,115.6h38.3v4h-6.6c-2.9,0-4.8,0.3-5.5,1
			c-0.8,0.7-1.1,2.1-1.1,4.3v58.8c0,2.4,0.3,3.8,1,4.4c0.9,0.8,2.5,1.2,4.9,1.2h7.3v4h-38.3v-4h7.3c2.5,0,4.2-0.4,4.9-1.1
			s1.1-2.2,1.1-4.6V125c0-2.2-0.3-3.6-1-4.1c-1.1-0.8-3-1.2-5.8-1.2h-6.5V115.6L150.8,115.6z M246.5,121.6l5-6.8h4.1l0.3,28.3h-3.7
			c-2.3-8.7-5.8-15-10.3-19c-4.6-4-9.8-6-15.7-6c-4.9,0-9,1.4-12.2,4.1c-3.1,2.7-4.7,6.1-4.7,10.1c0,2.5,0.6,4.7,1.8,6.5
			c1.2,1.9,3,3.4,5.4,4.6c2.4,1.2,6.9,2.4,13.5,3.8c9.2,1.9,15.7,3.8,19.5,5.7c3.7,1.9,6.5,4.3,8.3,7.3c1.8,2.9,2.8,6.3,2.8,10.3
			c0,7-2.5,12.8-7.6,17.4c-5,4.6-11.5,6.9-19.5,6.9c-8.6,0-16-2.6-22.3-7.8l-6.3,7.2h-4v-30.2h4c1.6,8.3,5.1,14.9,10.6,19.7
			c5.5,4.8,11.6,7.2,18.5,7.2c5.5,0,10-1.5,13.5-4.6c3.5-3.1,5.3-6.8,5.3-11.2c0-2.5-0.7-4.7-2-6.6c-1.3-1.9-3.4-3.4-6.2-4.7
			c-2.8-1.3-8.4-2.8-16.8-4.6c-9.2-2-15.4-4.3-18.7-6.8c-4.7-3.6-7-8.6-7-15.2c0-6.8,2.3-12.4,7-16.8c4.7-4.4,10.6-6.6,17.9-6.6
			c3.5,0,6.8,0.6,9.9,1.7C239.9,116.9,243.1,118.8,246.5,121.6L246.5,121.6z"/>
		<path class="st0" d="M25.8,234.7h-6.5l-1.8-6H8.1l-1.8,6h-6.4l9.6-26.9h7C16.4,207.8,25.8,234.7,25.8,234.7z M16.1,224.1l-2.8-9
			c-0.2-0.7-0.4-1.5-0.4-2.4h-0.1c-0.1,0.8-0.2,1.6-0.5,2.3l-2.9,9.1H16.1z M51.2,234.7h-6.8l-4.1-6.9c-0.3-0.5-0.6-1-0.9-1.4
			c-0.3-0.4-0.6-0.8-0.9-1.1c-0.3-0.3-0.6-0.5-0.9-0.7c-0.3-0.2-0.7-0.2-1-0.2h-1.6v10.3h-6v-26.9h9.4c6.4,0,9.6,2.4,9.6,7.3
			c0,0.9-0.1,1.8-0.4,2.6c-0.3,0.8-0.7,1.5-1.2,2.1c-0.5,0.6-1.1,1.2-1.9,1.7c-0.7,0.5-1.5,0.8-2.4,1.1v0.1c0.4,0.1,0.8,0.3,1.1,0.6
			c0.4,0.3,0.7,0.6,1.1,1c0.3,0.4,0.7,0.8,1,1.2c0.3,0.4,0.6,0.9,0.9,1.3L51.2,234.7L51.2,234.7z M35.1,212.3v7.5h2.6
			c1.3,0,2.3-0.4,3.1-1.1c0.8-0.8,1.2-1.7,1.2-2.8c0-2.4-1.4-3.5-4.1-3.5H35.1z M65.1,212.6c-2.1,0-3.7,0.8-5,2.4
			c-1.2,1.6-1.8,3.7-1.8,6.3c0,2.7,0.6,4.8,1.8,6.3c1.2,1.6,2.8,2.3,4.8,2.3c2.1,0,3.7-0.8,4.9-2.3c1.2-1.5,1.8-3.6,1.8-6.3
			c0-2.8-0.6-4.9-1.7-6.5C68.7,213.4,67.1,212.6,65.1,212.6L65.1,212.6z M69.8,234.2c0.6,0.7,1.2,1.3,1.8,1.7
			c0.6,0.4,1.2,0.8,1.7,1.1c0.6,0.3,1.2,0.4,1.8,0.5c0.6,0.1,1.3,0.1,2,0.1c0.2,0,0.4,0,0.6,0c0.2,0,0.5-0.1,0.7-0.1
			c0.2,0,0.5-0.1,0.7-0.2c0.2-0.1,0.4-0.1,0.6-0.2v5.1c-0.4,0.1-0.9,0.2-1.6,0.3c-0.7,0.1-1.5,0.2-2.5,0.2c-1.2,0-2.3-0.2-3.3-0.6
			c-1-0.4-2-0.9-2.9-1.6c-0.9-0.7-1.8-1.5-2.7-2.4c-0.9-0.9-1.8-1.9-2.7-3c-1.8-0.1-3.4-0.4-4.9-1.1c-1.5-0.7-2.7-1.7-3.8-2.9
			c-1-1.2-1.8-2.6-2.4-4.3s-0.9-3.4-0.9-5.2c0-4.3,1.2-7.7,3.6-10.3c2.4-2.6,5.6-4,9.7-4c3.7,0,6.8,1.3,9.1,3.8
			c2.3,2.5,3.5,5.8,3.5,9.9c0,3.2-0.7,6-2.1,8.3C74.3,231.7,72.3,233.3,69.8,234.2L69.8,234.2z M103.7,223.1
			c0,8.1-3.7,12.1-11.1,12.1c-7.2,0-10.7-4-10.7-11.8v-15.5h5.9v15.6c0,4.4,1.7,6.5,5,6.5c3.3,0,4.9-2.1,4.9-6.3v-15.9h6
			L103.7,223.1L103.7,223.1z M117.7,207.8v4.7h-2.2V230h2.2v4.7h-10.4V230h2.2v-17.5h-2.2v-4.7L117.7,207.8L117.7,207.8z
			 M139.9,212.7h-7.5v22h-6v-22H119v-4.9h21V212.7L139.9,212.7z M159.3,234.7h-15.8v-26.9h15.2v4.9h-9.3v6h8.6v4.9h-8.6v6.2h9.9
			V234.7z M182,212.7h-7.5v22h-5.9v-22h-7.5v-4.9h21V212.7z M207.1,223.1c0,8.1-3.7,12.1-11.1,12.1c-7.2,0-10.7-4-10.7-11.8v-15.5h6
			v15.6c0,4.4,1.7,6.5,5,6.5c3.3,0,4.9-2.1,4.9-6.3v-15.9h6L207.1,223.1L207.1,223.1z M234.9,234.7h-6.8l-4.1-6.9
			c-0.3-0.5-0.6-1-0.9-1.4c-0.3-0.4-0.6-0.8-0.9-1.1c-0.3-0.3-0.6-0.5-0.9-0.7c-0.3-0.2-0.7-0.2-1-0.2h-1.6v10.3h-6v-26.9h9.4
			c6.4,0,9.6,2.4,9.6,7.3c0,0.9-0.1,1.8-0.4,2.6c-0.3,0.8-0.7,1.5-1.2,2.1c-0.5,0.6-1.1,1.2-1.9,1.7c-0.7,0.5-1.5,0.8-2.4,1.1v0.1
			c0.4,0.1,0.8,0.3,1.1,0.6c0.4,0.3,0.7,0.6,1.1,1c0.3,0.4,0.7,0.8,1,1.2c0.3,0.4,0.6,0.9,0.9,1.3L234.9,234.7z M218.8,212.3v7.5
			h2.6c1.3,0,2.3-0.4,3.1-1.1c0.8-0.8,1.2-1.7,1.2-2.8c0-2.4-1.4-3.5-4.1-3.5H218.8L218.8,212.3z M260.6,234.7h-6.5l-1.8-6h-9.4
			l-1.8,6h-6.4l9.6-26.9h7L260.6,234.7L260.6,234.7z M250.9,224.1l-2.8-9c-0.2-0.7-0.4-1.5-0.4-2.4h-0.1c-0.1,0.8-0.2,1.6-0.5,2.3
			l-2.9,9.1H250.9L250.9,224.1z"/>
	</g>
</g>
</svg>
