<?xml version="1.0" encoding="UTF-8"?>
<!DOCTYPE svg PUBLIC "-//W3C//DTD SVG 1.1//EN" "http://www.w3.org/Graphics/SVG/1.1/DTD/svg11.dtd">
<!-- Creator: CorelDRAW -->
<svg xmlns="http://www.w3.org/2000/svg" xml:space="preserve" width="210mm" height="297mm" version="1.1" style="shape-rendering:geometricPrecision; text-rendering:geometricPrecision; image-rendering:optimizeQuality; fill-rule:evenodd; clip-rule:evenodd"
viewBox="0 0 21000 29700"
 xmlns:xlink="http://www.w3.org/1999/xlink"
 xmlns:xodm="http://www.corel.com/coreldraw/odm/2003">
 <defs>
  <style type="text/css">
   <![CDATA[
    .fil0 {fill:#76553B;fill-rule:nonzero}
   ]]>
  </style>
 </defs>
 <g id="Camada_x0020_1">
  <metadata id="CorelCorpID_0Corel-Layer"/>
  <g id="_2571679471760">
   <path class="fil0" d="M3930.75 5952.26l286 0 2175.93 5440.77c86.92,218.4 266.37,328.3 536.96,328.3l189.29 0 0 304.92 -2422.69 0 0 -304.92 193.48 0c250.95,0 429.03,-26.12 532.76,-79.67 71.5,-38.48 107.96,-96.17 107.96,-173.08 0,-45.33 -9.81,-93.4 -29.44,-144.23l-501.93 -1259.57 -2400.25 0 -284.61 722.51c-74.29,192.29 -112.14,344.75 -112.14,457.39 0,130.5 63.07,243.12 187.86,336.52 124.78,93.4 305.64,140.13 543.98,140.13l206.08 0 0 304.92 -2203.95 0 0 -304.92c235.54,0 422.01,-50.84 559.41,-151.12 137.38,-100.25 263.57,-289.82 378.55,-571.4l2056.75 -5046.55zm-113.57 1144.19l-1082.35 2655.15 2139.47 0 -1057.12 -2655.15zm3597.56 -1020.56l1448.26 0 3674.7 4677.06 0 -3383.15c0,-340.66 -78.52,-592.01 -236.93,-755.48 -144.42,-151.1 -360.33,-228 -646.33,-233.51l0 -304.92 2111.42 0 0 304.92c-215.9,0 -378.55,28.86 -485.1,87.92 -106.55,59.06 -199.08,166.2 -279,322.79 -79.92,155.21 -119.16,325.54 -119.16,509.6l0 4725.13 -378.55 0 -3802.25 -4876.22 0 3596.04c0,325.54 84.11,567.29 250.95,728 166.84,159.34 424.79,241.75 775.32,247.26l0 304.92 -2313.33 0 0 -304.92c290.22,-10.99 518.74,-104.42 688.38,-278.86 169.64,-175.81 253.76,-390.08 253.76,-644.21l0 -4027.35 -70.09 -75.53c-130.41,-145.61 -224.33,-232.16 -281.81,-258.25 -81.31,-37.08 -185.06,-56.32 -312.63,-56.32l-277.61 0 0 -304.92zm9446.78 -123.63l286 0 2175.93 5440.77c86.92,218.4 266.37,328.3 536.95,328.3l189.3 0 0 304.92 -2422.69 0 0 -304.92 193.47 0c250.96,0 429.04,-26.12 532.76,-79.67 71.51,-38.48 107.99,-96.17 107.99,-173.08 0,-45.33 -9.83,-93.4 -29.46,-144.23l-501.93 -1259.57 -2400.25 0 -284.61 722.51c-74.29,192.29 -112.14,344.75 -112.14,457.39 0,130.5 63.07,243.12 187.86,336.52 124.77,93.4 305.66,140.13 543.98,140.13l206.08 0 0 304.92 -2203.95 0 0 -304.92c235.54,0 422.01,-50.84 559.41,-151.12 137.38,-100.25 263.56,-289.82 378.55,-571.4l2056.75 -5046.55zm-113.58 1144.19l-1082.34 2655.15 2139.47 0 -1057.13 -2655.15z"/>
   <path class="fil0" d="M936.04 14425.03l3002.77 0c676.98,0 1195.23,144.73 1551.97,432.92 356.76,288.18 535.11,664.53 535.11,1130.35 0,465.83 -164.33,821.11 -492.98,1065.87 -452.24,336.86 -1011.23,505.3 -1674.14,505.3l-1085.67 0 0 1939.6c0,113.18 29.5,193.45 87.08,242.12 75.83,61.85 179.79,92.12 307.59,92.12l692.41 0 0 292.13 -2924.14 0 0 -292.13 609.54 0c122.2,0 210.67,-22.38 266.85,-67.1 56.19,-44.75 84.28,-106.6 84.28,-182.92l0 -4538.48c0,-115.79 -35.13,-200.01 -106.74,-251.33 -71.65,-51.33 -206.48,-76.32 -404.5,-76.32l-449.43 0 0 -292.13zm1837.06 2842.31l827.25 0c523.87,0 901.67,-101.32 1133.41,-305.28 231.74,-203.96 348.33,-540.84 348.33,-1010.61 0,-328.96 -51.98,-580.29 -155.89,-756.63 -105.35,-175.02 -258.44,-305.28 -459.28,-389.5 -202.24,-85.54 -533.72,-127.63 -994.39,-127.63 -304.76,0 -497.17,26.3 -578.65,80.25 -80.04,53.95 -120.78,147.39 -120.78,281.6l0 2227.8zm5771.02 -2960.75l286.54 0 2179.75 5212.21c87.09,209.24 266.85,314.51 537.91,314.51l189.61 0 0 292.13 -2426.95 0 0 -292.13 193.83 0c251.39,0 429.78,-24.99 533.69,-76.33 71.63,-36.83 108.15,-92.11 108.15,-165.8 0,-43.42 -9.82,-89.47 -29.5,-138.17l-502.8 -1206.66 -2404.47 0 -285.1 692.16c-74.46,184.23 -112.37,330.3 -112.37,438.2 0,125 63.21,232.9 188.19,322.37 125,89.5 306.17,134.23 544.96,134.23l206.45 0 0 292.13 -2207.86 0 0 -292.13c235.96,0 422.74,-48.68 560.39,-144.74 137.63,-96.06 264.04,-277.67 379.22,-547.42l2060.36 -4834.56zm-113.74 1096.14l-1084.28 2543.6 2143.25 0 -1058.97 -2543.6zm3570.2 -977.7l2806.14 0 0 292.13 -480.3 0c-213.5,0 -348.33,24.99 -404.52,74.99 -56.15,50.01 -84.26,156.6 -84.26,317.15l0 4312.14c0,172.38 25.28,280.28 74.43,323.7 64.63,59.23 184,88.17 356.76,88.17l537.89 0 0 292.13 -2806.14 0 0 -292.13 532.28 0c186.81,0 307.59,-26.32 362.37,-77.64 54.78,-51.31 82.87,-161.85 82.87,-334.23l0 -4312.14c0,-163.19 -25.3,-264.5 -74.44,-303.98 -77.23,-59.22 -217.69,-88.16 -424.17,-88.16l-478.91 0 0 -292.13zm7013.99 434.25l369.39 -497.41 303.37 0 25.28 2076.47 -269.65 0c-169.95,-636.9 -422.76,-1100.09 -755.6,-1393.53 -334.26,-292.13 -717.72,-438.19 -1151.69,-438.19 -362.35,0 -658.72,101.31 -890.46,303.97 -230.32,201.32 -345.49,448.7 -345.49,740.83 0,181.59 43.54,340.83 132.02,477.67 87.06,136.86 219.08,248.71 393.26,334.24 174.15,85.53 502.8,177.64 985.95,276.34 676.95,139.48 1153.08,278.96 1425.54,421.08 273.89,140.8 477.54,318.45 610.95,532.94 134.85,214.48 202.26,464.5 202.26,752.68 0,513.19 -184,938.23 -553.37,1275.09 -369.37,338.18 -845.49,506.62 -1431.19,506.62 -627.78,0 -1174.12,-189.5 -1637.62,-568.47l-464.89 528.98 -294.93 0 0 -2210.68 294.93 0c115.17,610.58 373.61,1092.19 773.87,1444.85 400.3,352.65 851.12,528.98 1353.95,528.98 405.87,0 735.95,-111.85 992.95,-336.87 257.04,-223.7 384.85,-497.41 384.85,-817.17 0,-182.89 -47.76,-342.13 -144.66,-480.28 -95.52,-136.86 -247.21,-252.66 -456.45,-346.08 -207.89,-93.44 -618,-206.6 -1230.36,-339.49 -671.33,-150.02 -1129.2,-315.82 -1372.19,-501.37 -341.29,-261.86 -512.61,-632.94 -512.61,-1113.24 0,-501.35 169.93,-910.58 511.21,-1230.34 341.31,-319.76 778.09,-480.31 1309,-480.31 254.19,0 497.17,42.11 727.52,127.64 230.34,85.55 467.69,226.34 714.86,425.05z"/>
   <path class="fil0" d="M2843.11 23153.87l-474.7 0 -135.22 -439.86 -691.37 0 -133.85 439.86 -471.93 0 703.3 -1973.74 516.57 0 687.2 1973.74zm-710.22 -781.04l-208.8 -662.62c-15.19,-49.82 -26.24,-109.02 -32.68,-177.62l-10.57 0c-4.59,57.79 -15.65,115.13 -34.05,171.99l-211.13 668.25 497.23 0zm2572.25 781.04l-499.54 0 -300.82 -508c-22.08,-38.54 -43.71,-72.86 -64.4,-103.4 -20.71,-30.08 -41.4,-55.92 -62.57,-77.53 -21.15,-21.62 -43.23,-38.07 -66.23,-49.36 -22.56,-11.73 -47.84,-17.38 -74.54,-17.38l-117.27 0 0 755.67 -436.07 0 0 -1973.74 689.97 0c469.17,0 703.78,179.04 703.78,536.67 0,69.07 -10.14,132.52 -30.83,190.79 -20.69,58.27 -50.15,110.91 -87.86,157.43 -37.7,46.99 -83.26,87.42 -136.61,121.24 -53.37,33.84 -112.7,60.62 -178.47,79.89l0 5.63c28.98,8.94 56.57,23.98 83.72,44.65 26.67,20.69 52.89,44.64 78.2,72.38 24.82,27.25 49.21,56.86 71.75,88.81 23,31.49 44.15,62.51 63.03,92.59l364.76 583.66zm-1185.37 -1641.04l0 549.84 188.57 0c93.38,0 168.38,-27.73 224.94,-82.7 57.51,-55.93 86.01,-125.48 86.01,-208.18 0,-172.47 -101.17,-258.96 -303.12,-258.96l-196.4 0zm2201.01 16.94c-151.8,0 -273.25,58.72 -363.85,176.22 -89.7,116.55 -134.78,271.15 -134.78,463.83 0,194.56 44.62,349.16 133.39,463.83 89.7,113.72 207.91,170.58 354.66,170.58 150.86,0 269.53,-54.99 356.93,-164.95 87.85,-112.3 132.02,-265.97 132.02,-461.48 0,-202.53 -42.32,-360.91 -126.5,-474.63 -84.63,-115.61 -201.93,-173.4 -351.87,-173.4zm343.13 1587.45c46.9,50.75 91.55,92.57 133.39,125.46 42.32,32.9 85.11,58.75 127.89,78 42.79,18.8 86.48,31.98 131.54,39.5 45.08,7.04 93.84,10.8 147.21,10.8 14.25,0 29.89,-0.48 46.9,-1.89 17.02,-1.39 34.51,-3.76 52,-7.04 17.47,-3.29 34.49,-7.05 50.59,-11.29 16.1,-3.76 31.26,-8.93 44.62,-14.08l0 375c-28.52,8 -68.53,16.45 -119.14,24.91 -51.06,7.99 -112.7,12.21 -185.37,12.21 -88.31,0 -169.27,-14.56 -243.33,-43.71 -74.06,-29.6 -145.36,-69.53 -212.98,-120.3 -68.08,-50.75 -133.85,-110.42 -198.25,-179.04 -64.4,-68.61 -131.11,-142.38 -200.1,-220.87 -132,-3.76 -251.6,-31.49 -359.25,-84.11 -107.63,-52.17 -199.62,-122.66 -275.97,-211.49 -76.36,-88.33 -135.24,-192.66 -177.1,-312.03 -41.86,-119.37 -62.57,-247.19 -62.57,-383.93 0,-313.46 87.88,-565.81 264.04,-757.54 177.1,-193.16 413.06,-289.49 707.45,-289.49 274.16,0 495.87,92.57 665.59,278.21 170.67,183.75 256.21,426.71 256.21,728.39 0,236.39 -52.43,438.92 -156.84,609.05 -104.44,167.77 -249.77,286.18 -436.53,355.28zm2490.37 -818.64c0,592.59 -270.49,889.13 -810.95,889.13 -524.85,0 -787.04,-289.49 -787.04,-868.46l0 -1139.12 436.05 0 0 1145.23c0,319.1 121.91,478.87 366.15,478.87 239.66,0 359.71,-154.14 359.71,-462.41l0 -1161.69 436.08 0 0 1118.45zm1018.88 -1118.45l0 343.98 -162.85 0 0 1285.75 162.85 0 0 344.01 -761.76 0 0 -344.01 162.85 0 0 -1285.75 -162.85 0 0 -343.98 761.76 0zm1633.38 360.92l-551.97 0 0 1612.82 -436.08 0 0 -1612.82 -549.19 0 0 -360.92 1537.24 0 0 360.92zm1418.58 1612.82l-1159.15 0 0 -1973.74 1114.99 0 0 360.92 -678.91 0 0 439.85 632 0 0 360.92 -632 0 0 451.13 723.07 0 0 360.92zm1667.44 -1612.82l-551.98 0 0 1612.82 -436.05 0 0 -1612.82 -549.22 0 0 -360.92 1537.25 0 0 360.92zm1835.35 757.53c0,592.59 -270.5,889.13 -810.97,889.13 -524.84,0 -787.04,-289.49 -787.04,-868.46l0 -1139.12 436.08 0 0 1145.23c0,319.1 121.9,478.87 366.13,478.87 239.67,0 359.73,-154.14 359.73,-462.41l0 -1161.69 436.07 0 0 1118.45zm2041.4 855.29l-499.54 0 -300.82 -508c-22.08,-38.54 -43.71,-72.86 -64.4,-103.4 -20.71,-30.08 -41.4,-55.92 -62.57,-77.53 -21.15,-21.62 -43.23,-38.07 -66.23,-49.36 -22.56,-11.73 -47.84,-17.38 -74.52,-17.38l-117.29 0 0 755.67 -436.07 0 0 -1973.74 689.98 0c469.18,0 703.77,179.04 703.77,536.67 0,69.07 -10.12,132.52 -30.83,190.79 -20.69,58.27 -50.15,110.91 -87.85,157.43 -37.71,46.99 -83.27,87.42 -136.62,121.24 -53.35,33.84 -112.7,60.62 -178.47,79.89l0 5.63c28.98,8.94 56.57,23.98 83.72,44.65 26.68,20.69 52.91,44.64 78.2,72.38 24.82,27.25 49.21,56.86 71.77,88.81 23,31.49 44.15,62.51 63.01,92.59l364.76 583.66zm-1185.37 -1641.04l0 549.84 188.57 0c93.38,0 168.38,-27.73 224.94,-82.7 57.51,-55.93 86.01,-125.48 86.01,-208.18 0,-172.47 -101.17,-258.96 -303.12,-258.96l-196.4 0zm3065.76 1641.04l-474.69 0 -135.25 -439.86 -691.35 0 -133.85 439.86 -471.93 0 703.3 -1973.74 516.57 0 687.2 1973.74zm-710.21 -781.04l-208.83 -662.62c-15.18,-49.82 -26.22,-109.02 -32.66,-177.62l-10.57 0c-4.61,57.79 -15.64,115.13 -34.05,171.99l-211.13 668.25 497.24 0z"/>
  </g>
 </g>
</svg>
